<svg width="704" height="33" viewBox="0 0 704 33" fill="none" xmlns="http://www.w3.org/2000/svg">
<g filter="url(#filter0_di_3988_5321)">
<path d="M0 12.7109C0 6.08352 5.37258 0.710938 12 0.710938H692C698.627 0.710938 704 6.08352 704 12.7109V32.7109H0V12.7109Z" fill="white"/>
<path d="M0 12.7109C0 6.08352 5.37258 0.710938 12 0.710938H692C698.627 0.710938 704 6.08352 704 12.7109V32.7109H0V12.7109Z" fill="url(#paint0_linear_3988_5321)"/>
<g clip-path="url(#clip0_3988_5321)">
<path d="M616.304 20.7642C618.998 20.7642 621.229 18.5286 621.229 15.8391C621.229 13.1448 618.993 10.9141 616.299 10.9141C613.61 10.9141 611.379 13.1448 611.379 15.8391C611.379 18.5286 613.615 20.7642 616.304 20.7642ZM616.304 19.9434C614.025 19.9434 612.205 18.1182 612.205 15.8391C612.205 13.5601 614.02 11.7349 616.299 11.7349C618.578 11.7349 620.403 13.5601 620.408 15.8391C620.413 18.1182 618.583 19.9434 616.304 19.9434ZM616.304 13.3814C616.096 13.3814 615.942 13.5311 615.942 13.7436V16.1578L615.98 17.1766L615.498 16.5972L614.923 16.0178C614.855 15.955 614.769 15.9116 614.667 15.9116C614.469 15.9116 614.319 16.0661 614.319 16.2592C614.319 16.3606 614.348 16.4475 614.411 16.5103L616.024 18.1182C616.12 18.2148 616.203 18.2534 616.304 18.2534C616.41 18.2534 616.497 18.2099 616.589 18.1182L618.197 16.5103C618.26 16.4475 618.298 16.3606 618.298 16.2592C618.298 16.0661 618.144 15.9116 617.946 15.9116C617.839 15.9116 617.753 15.9502 617.69 16.0178L617.12 16.5972L616.627 17.1815L616.666 16.1578V13.7436C616.666 13.5311 616.516 13.3814 616.304 13.3814Z" fill="#737373"/>
<path d="M640.155 17.1524C640.363 17.1524 640.536 16.9785 640.536 16.7757V11.8169L640.507 11.0926L640.836 11.4354L641.565 12.2176C641.632 12.2949 641.734 12.3335 641.826 12.3335C642.028 12.3335 642.178 12.1887 642.178 11.9907C642.178 11.8893 642.139 11.812 642.067 11.7396L640.435 10.1655C640.338 10.069 640.251 10.0352 640.155 10.0352C640.058 10.0352 639.971 10.069 639.875 10.1655L638.243 11.7396C638.17 11.812 638.127 11.8893 638.127 11.9907C638.127 12.1887 638.277 12.3335 638.475 12.3335C638.571 12.3335 638.673 12.2949 638.74 12.2176L639.474 11.4354L639.802 11.0926L639.769 11.8169V16.7757C639.769 16.9785 639.947 17.1524 640.155 17.1524ZM637.383 20.9331H642.922C643.931 20.9331 644.438 20.4309 644.438 19.4363V14.6174C644.438 13.6227 643.931 13.1206 642.922 13.1206H641.574V13.898H642.907C643.385 13.898 643.66 14.1587 643.66 14.6609V19.3928C643.66 19.895 643.385 20.1557 642.907 20.1557H637.393C636.91 20.1557 636.645 19.895 636.645 19.3928V14.6609C636.645 14.1587 636.91 13.898 637.393 13.898H638.73V13.1206H637.383C636.374 13.1206 635.867 13.6227 635.867 14.6174V19.4363C635.867 20.4309 636.374 20.9331 637.383 20.9331Z" fill="#737373"/>
<path d="M664.007 19.9046C664.244 19.9046 664.442 19.7163 664.442 19.4846V16.2736H667.561C667.793 16.2736 667.99 16.0756 667.99 15.839C667.99 15.6024 667.793 15.4093 667.561 15.4093H664.442V12.1935C664.442 11.9617 664.244 11.7734 664.007 11.7734C663.77 11.7734 663.577 11.9617 663.577 12.1935V15.4093H660.453C660.221 15.4093 660.023 15.6024 660.023 15.839C660.023 16.0756 660.221 16.2736 660.453 16.2736H663.577V19.4846C663.577 19.7163 663.77 19.9046 664.007 19.9046Z" fill="#737373"/>
<path d="M684.266 18.6653H685.092V19.404C685.092 20.3987 685.594 20.9009 686.608 20.9009H691.456C692.46 20.9009 692.967 20.3987 692.967 19.404V14.5176C692.967 13.5229 692.46 13.0208 691.456 13.0208H690.625V12.282C690.625 11.2873 690.118 10.7852 689.114 10.7852H684.266C683.252 10.7852 682.75 11.2873 682.75 12.282V17.1684C682.75 18.1631 683.252 18.6653 684.266 18.6653ZM684.276 17.8879C683.793 17.8879 683.527 17.6271 683.527 17.125V12.3254C683.527 11.8233 683.793 11.5625 684.276 11.5625H689.099C689.578 11.5625 689.848 11.8233 689.848 12.3254V13.0208H686.608C685.594 13.0208 685.092 13.5181 685.092 14.5176V17.8879H684.276ZM686.618 20.1235C686.14 20.1235 685.869 19.8627 685.869 19.3606V14.561C685.869 14.0589 686.14 13.7981 686.618 13.7981H691.441C691.919 13.7981 692.19 14.0589 692.19 14.561V19.3606C692.19 19.8627 691.919 20.1235 691.441 20.1235H686.618Z" fill="#737373"/>
</g>
<g clip-path="url(#clip1_3988_5321)">
<path d="M89.1526 19.8974L85.3236 16.1601C85.2319 16.0684 85.1836 15.9573 85.1836 15.8366C85.1836 15.7111 85.2367 15.5903 85.3284 15.5131L89.1526 11.771C89.2347 11.6889 89.3409 11.6406 89.4665 11.6406C89.7176 11.6406 89.9059 11.8338 89.9059 12.0848C89.9059 12.2007 89.8576 12.3166 89.7803 12.3987L86.2652 15.8366L89.7803 19.2745C89.8576 19.3566 89.9059 19.4676 89.9059 19.5883C89.9059 19.8394 89.7176 20.0277 89.4665 20.0277C89.3409 20.0277 89.2347 19.9795 89.1526 19.8974Z" fill="#737373"/>
<path d="M104.822 20.0326C104.948 20.0326 105.054 19.9843 105.136 19.9022L108.965 16.1601C109.057 16.0684 109.105 15.9573 109.105 15.8366C109.105 15.7111 109.057 15.5952 108.965 15.5131L105.141 11.7758C105.054 11.6889 104.948 11.6406 104.822 11.6406C104.571 11.6406 104.383 11.8338 104.383 12.0848C104.383 12.2007 104.431 12.3166 104.508 12.3987L108.024 15.8366L104.508 19.2745C104.431 19.3566 104.383 19.4676 104.383 19.5883C104.383 19.8394 104.571 20.0326 104.822 20.0326Z" fill="#BFBFBF"/>
</g>
<path d="M58.9341 20.2877H67.2874C68.3014 20.2877 68.8036 19.7855 68.8036 18.7909V12.8953C68.8036 11.9006 68.3014 11.3984 67.2874 11.3984H58.9341C57.925 11.3984 57.418 11.8958 57.418 12.8953V18.7909C57.418 19.7904 57.925 20.2877 58.9341 20.2877ZM58.9438 19.5103C58.4609 19.5103 58.1954 19.2544 58.1954 18.7522V12.9339C58.1954 12.4317 58.4609 12.1758 58.9438 12.1758H61.0973V19.5103H58.9438ZM67.2778 12.1758C67.7558 12.1758 68.0262 12.4317 68.0262 12.9339V18.7522C68.0262 19.2544 67.7558 19.5103 67.2778 19.5103H61.8554V12.1758H67.2778ZM60.1654 13.9672C60.3151 13.9672 60.4406 13.8368 60.4406 13.6968C60.4406 13.552 60.3151 13.4264 60.1654 13.4264H59.1321C58.9872 13.4264 58.8569 13.552 58.8569 13.6968C58.8569 13.8368 58.9872 13.9672 59.1321 13.9672H60.1654ZM60.1654 15.2178C60.3151 15.2178 60.4406 15.0874 60.4406 14.9426C60.4406 14.7977 60.3151 14.677 60.1654 14.677H59.1321C58.9872 14.677 58.8569 14.7977 58.8569 14.9426C58.8569 15.0874 58.9872 15.2178 59.1321 15.2178H60.1654ZM60.1654 16.4635C60.3151 16.4635 60.4406 16.3428 60.4406 16.198C60.4406 16.0531 60.3151 15.9276 60.1654 15.9276H59.1321C58.9872 15.9276 58.8569 16.0531 58.8569 16.198C58.8569 16.3428 58.9872 16.4635 59.1321 16.4635H60.1654Z" fill="#737373"/>
<g filter="url(#filter1_i_3988_5321)">
<path fill-rule="evenodd" clip-rule="evenodd" d="M15.705 19.3241C17.6326 19.3241 19.1952 17.7615 19.1952 15.8339C19.1952 13.9063 17.6326 12.3438 15.705 12.3438C13.7774 12.3438 12.2148 13.9063 12.2148 15.8339C12.2148 17.7615 13.7774 19.3241 15.705 19.3241Z" fill="#EE6A5F"/>
</g>
<path d="M19.0497 15.8339C19.0497 17.6812 17.5522 19.1786 15.705 19.1786C13.8578 19.1786 12.3603 17.6812 12.3603 15.8339C12.3603 13.9867 13.8578 12.4892 15.705 12.4892C17.5522 12.4892 19.0497 13.9867 19.0497 15.8339Z" stroke="#CE5347" stroke-width="0.290846"/>
<g filter="url(#filter2_i_3988_5321)">
<path fill-rule="evenodd" clip-rule="evenodd" d="M27.3339 19.3241C29.2615 19.3241 30.8241 17.7615 30.8241 15.8339C30.8241 13.9063 29.2615 12.3438 27.3339 12.3438C25.4063 12.3438 23.8438 13.9063 23.8438 15.8339C23.8438 17.7615 25.4063 19.3241 27.3339 19.3241Z" fill="#F5BD4F"/>
</g>
<path d="M30.6786 15.8339C30.6786 17.6812 29.1812 19.1786 27.3339 19.1786C25.4867 19.1786 23.9892 17.6812 23.9892 15.8339C23.9892 13.9867 25.4867 12.4892 27.3339 12.4892C29.1812 12.4892 30.6786 13.9867 30.6786 15.8339Z" stroke="#D6A243" stroke-width="0.290846"/>
<g filter="url(#filter3_i_3988_5321)">
<path fill-rule="evenodd" clip-rule="evenodd" d="M38.9706 19.3241C40.8982 19.3241 42.4608 17.7615 42.4608 15.8339C42.4608 13.9063 40.8982 12.3438 38.9706 12.3438C37.0431 12.3438 35.4805 13.9063 35.4805 15.8339C35.4805 17.7615 37.0431 19.3241 38.9706 19.3241Z" fill="#61C454"/>
</g>
<path d="M42.3154 15.8339C42.3154 17.6812 40.8179 19.1786 38.9706 19.1786C37.1234 19.1786 35.6259 17.6812 35.6259 15.8339C35.6259 13.9867 37.1234 12.4892 38.9706 12.4892C40.8179 12.4892 42.3154 13.9867 42.3154 15.8339Z" stroke="#58A942" stroke-width="0.290846"/>
<g clip-path="url(#clip2_3988_5321)">
<path d="M196.598 20.8473C196.676 20.8473 196.801 20.8184 196.922 20.7508C199.669 19.2105 200.611 18.5586 200.611 16.7962V13.1024C200.611 12.5954 200.394 12.4361 199.983 12.2622C199.413 12.0257 197.574 11.3641 197.004 11.1662C196.874 11.1227 196.734 11.0938 196.598 11.0938C196.463 11.0938 196.323 11.1324 196.198 11.1662C195.628 11.3303 193.783 12.0305 193.214 12.2622C192.808 12.4312 192.586 12.5954 192.586 13.1024V16.7962C192.586 18.5586 193.532 19.2056 196.275 20.7508C196.4 20.8184 196.521 20.8473 196.598 20.8473ZM196.792 11.9146C197.521 12.2043 198.935 12.7161 199.684 12.972C199.814 13.0203 199.843 13.0879 199.843 13.2521V16.6176C199.843 18.1096 199.129 18.5007 196.898 19.8575C196.758 19.9444 196.681 19.9685 196.603 19.9734V11.8711C196.652 11.8711 196.714 11.8856 196.792 11.9146Z" fill="#737373"/>
<path d="M211.434 15.3988C211.434 11.1421 214.884 7.69141 219.141 7.69141H484.325C488.582 7.69141 492.032 11.1421 492.032 15.3988V16.2714C492.032 20.5281 488.582 23.9788 484.325 23.9788H219.141C214.884 23.9788 211.434 20.5281 211.434 16.2714V15.3988Z" fill="white"/>
<path d="M484.653 15.1745C484.738 15.1745 484.802 15.1472 484.85 15.0961L486.254 13.685C486.316 13.6271 486.34 13.5589 486.34 13.4805C486.34 13.4055 486.309 13.3306 486.254 13.276L484.85 11.8513C484.802 11.7968 484.734 11.7695 484.653 11.7695C484.499 11.7695 484.383 11.8922 484.383 12.049C484.383 12.1206 484.411 12.1888 484.458 12.2433L485.368 13.1363C485.174 13.1022 484.976 13.0817 484.779 13.0817C483.109 13.0817 481.766 14.4212 481.766 16.0913C481.766 17.7648 483.109 19.1077 484.779 19.1077C486.449 19.1077 487.788 17.7648 487.788 16.0913C487.788 15.9277 487.672 15.8084 487.505 15.8084C487.345 15.8084 487.239 15.9277 487.239 16.0913C487.239 17.4615 486.145 18.559 484.779 18.559C483.412 18.559 482.314 17.4615 482.314 16.0913C482.314 14.7246 483.412 13.6305 484.779 13.6305C485.038 13.6305 485.276 13.6509 485.481 13.6953L484.462 14.7075C484.411 14.7621 484.383 14.8302 484.383 14.9018C484.383 15.0586 484.499 15.1745 484.653 15.1745Z" fill="#797979"/>
</g>
</g>
<defs>
<filter id="filter0_di_3988_5321" x="0" y="0.710938" width="704" height="32.2908" filterUnits="userSpaceOnUse" color-interpolation-filters="sRGB">
<feFlood flood-opacity="0" result="BackgroundImageFix"/>
<feColorMatrix in="SourceAlpha" type="matrix" values="0 0 0 0 0 0 0 0 0 0 0 0 0 0 0 0 0 0 127 0" result="hardAlpha"/>
<feOffset dy="0.290846"/>
<feColorMatrix type="matrix" values="0 0 0 0 0 0 0 0 0 0 0 0 0 0 0 0 0 0 0.15 0"/>
<feBlend mode="normal" in2="BackgroundImageFix" result="effect1_dropShadow_3988_5321"/>
<feBlend mode="normal" in="SourceGraphic" in2="effect1_dropShadow_3988_5321" result="shape"/>
<feColorMatrix in="SourceAlpha" type="matrix" values="0 0 0 0 0 0 0 0 0 0 0 0 0 0 0 0 0 0 127 0" result="hardAlpha"/>
<feOffset dy="-0.290846"/>
<feComposite in2="hardAlpha" operator="arithmetic" k2="-1" k3="1"/>
<feColorMatrix type="matrix" values="0 0 0 0 0 0 0 0 0 0 0 0 0 0 0 0 0 0 0.05 0"/>
<feBlend mode="normal" in2="shape" result="effect2_innerShadow_3988_5321"/>
</filter>
<filter id="filter1_i_3988_5321" x="12.2148" y="12.3438" width="6.98047" height="6.98047" filterUnits="userSpaceOnUse" color-interpolation-filters="sRGB">
<feFlood flood-opacity="0" result="BackgroundImageFix"/>
<feBlend mode="normal" in="SourceGraphic" in2="BackgroundImageFix" result="shape"/>
<feColorMatrix in="SourceAlpha" type="matrix" values="0 0 0 0 0 0 0 0 0 0 0 0 0 0 0 0 0 0 127 0" result="hardAlpha"/>
<feOffset/>
<feGaussianBlur stdDeviation="1.74508"/>
<feComposite in2="hardAlpha" operator="arithmetic" k2="-1" k3="1"/>
<feColorMatrix type="matrix" values="0 0 0 0 0.92549 0 0 0 0 0.427451 0 0 0 0 0.384314 0 0 0 1 0"/>
<feBlend mode="normal" in2="shape" result="effect1_innerShadow_3988_5321"/>
</filter>
<filter id="filter2_i_3988_5321" x="23.8438" y="12.3438" width="6.98047" height="6.98047" filterUnits="userSpaceOnUse" color-interpolation-filters="sRGB">
<feFlood flood-opacity="0" result="BackgroundImageFix"/>
<feBlend mode="normal" in="SourceGraphic" in2="BackgroundImageFix" result="shape"/>
<feColorMatrix in="SourceAlpha" type="matrix" values="0 0 0 0 0 0 0 0 0 0 0 0 0 0 0 0 0 0 127 0" result="hardAlpha"/>
<feOffset/>
<feGaussianBlur stdDeviation="1.74508"/>
<feComposite in2="hardAlpha" operator="arithmetic" k2="-1" k3="1"/>
<feColorMatrix type="matrix" values="0 0 0 0 0.960784 0 0 0 0 0.768627 0 0 0 0 0.317647 0 0 0 1 0"/>
<feBlend mode="normal" in2="shape" result="effect1_innerShadow_3988_5321"/>
</filter>
<filter id="filter3_i_3988_5321" x="35.4805" y="12.3438" width="6.98047" height="6.98047" filterUnits="userSpaceOnUse" color-interpolation-filters="sRGB">
<feFlood flood-opacity="0" result="BackgroundImageFix"/>
<feBlend mode="normal" in="SourceGraphic" in2="BackgroundImageFix" result="shape"/>
<feColorMatrix in="SourceAlpha" type="matrix" values="0 0 0 0 0 0 0 0 0 0 0 0 0 0 0 0 0 0 127 0" result="hardAlpha"/>
<feOffset/>
<feGaussianBlur stdDeviation="1.74508"/>
<feComposite in2="hardAlpha" operator="arithmetic" k2="-1" k3="1"/>
<feColorMatrix type="matrix" values="0 0 0 0 0.407843 0 0 0 0 0.8 0 0 0 0 0.345098 0 0 0 1 0"/>
<feBlend mode="normal" in2="shape" result="effect1_innerShadow_3988_5321"/>
</filter>
<linearGradient id="paint0_linear_3988_5321" x1="352" y1="0.710937" x2="352" y2="32.7109" gradientUnits="userSpaceOnUse">
<stop stop-color="#F2F2F2"/>
<stop offset="1" stop-color="#E2E2E2"/>
</linearGradient>
<clipPath id="clip0_3988_5321">
<rect width="90.7441" height="16.2874" fill="white" transform="translate(606.711 7.69141)"/>
</clipPath>
<clipPath id="clip1_3988_5321">
<rect width="38.3917" height="16.2874" fill="white" transform="translate(77.9492 7.69141)"/>
</clipPath>
<clipPath id="clip2_3988_5321">
<rect width="330" height="16.2874" fill="white" transform="translate(187 7.69141)"/>
</clipPath>
</defs>
</svg>
